<svg xmlns="http://www.w3.org/2000/svg" xmlns:xlink="http://www.w3.org/1999/xlink" width="500" zoomAndPan="magnify" viewBox="0 0 375 374.999991" height="500" preserveAspectRatio="xMidYMid meet" version="1.0"><defs><g/><clipPath id="2e0d4e49c4"><path d="M 60.441406 157.777344 L 312.886719 157.777344 L 312.886719 211.925781 L 60.441406 211.925781 Z M 60.441406 157.777344 " clip-rule="nonzero"/></clipPath><clipPath id="0e85aa0fab"><path d="M 60.457031 157.777344 L 312.859375 157.777344 L 312.859375 211.777344 L 60.457031 211.777344 Z M 60.457031 157.777344 " clip-rule="nonzero"/></clipPath><clipPath id="3bba513a72"><path d="M 308.011719 207.535156 L 317.761719 207.535156 L 317.761719 215 L 308.011719 215 Z M 308.011719 207.535156 " clip-rule="nonzero"/></clipPath></defs><rect x="-37.5" width="450" fill="#ffffff" y="-37.499999" height="449.999989" fill-opacity="1"/><rect x="-37.5" width="450" fill="#000000" y="-37.499999" height="449.999989" fill-opacity="1"/><g clip-path="url(#2e0d4e49c4)"><path fill="#000000" d="M 60.441406 157.777344 L 312.785156 157.777344 L 312.785156 211.925781 L 60.441406 211.925781 Z M 60.441406 157.777344 " fill-opacity="1" fill-rule="nonzero"/></g><g clip-path="url(#0e85aa0fab)"><path stroke-linecap="butt" transform="matrix(0.75, 0, 0, 0.75, 60.455969, 157.777401)" fill="none" stroke-linejoin="miter" d="M 0.00141589 -0.000076119 L 336.537896 -0.000076119 L 336.537896 72.187429 L 0.00141589 72.187429 Z M 0.00141589 -0.000076119 " stroke="#ffffff" stroke-width="8" stroke-opacity="1" stroke-miterlimit="4"/></g><g clip-path="url(#3bba513a72)"><path fill="#ffffff" d="M 312.828125 214.882812 L 308.023438 214.882812 L 312.933594 207.535156 L 317.738281 207.535156 Z M 312.828125 214.882812 " fill-opacity="1" fill-rule="nonzero"/></g><g fill="#000000" fill-opacity="1"><g transform="translate(64.711655, 202.124987)"><g><path d="M 22.496094 -38.761719 C 25.941406 -38.761719 28.695312 -38.023438 30.757812 -36.546875 C 31.925781 -35.710938 32.804688 -34.652344 33.394531 -33.375 C 33.953125 -32.164062 34.234375 -30.785156 34.234375 -29.242188 C 34.234375 -26.433594 33.6875 -24.03125 32.597656 -22.035156 C 31.457031 -19.953125 29.761719 -18.363281 27.515625 -17.269531 L 26.445312 -19.460938 L 28.886719 -19.460938 L 28.886719 -19.367188 L 26.445312 -19.367188 L 26.769531 -21.78125 C 29.414062 -21.429688 31.449219 -20.441406 32.871094 -18.816406 C 34.292969 -17.191406 35.003906 -15.046875 35.003906 -12.378906 C 35.003906 -7.726562 33.382812 -4.066406 30.140625 -1.394531 C 27.042969 1.160156 22.953125 2.4375 17.871094 2.4375 L 0.230469 2.4375 L 6.730469 -38.761719 Z M 22.496094 -33.882812 L 8.816406 -33.882812 L 8.816406 -36.320312 L 11.226562 -35.941406 L 5.492188 0.378906 L 3.082031 0 L 3.082031 -2.4375 L 17.871094 -2.4375 C 21.785156 -2.4375 24.839844 -3.34375 27.039062 -5.15625 C 29.097656 -6.855469 30.125 -9.261719 30.125 -12.378906 C 30.125 -13.824219 29.816406 -14.898438 29.199219 -15.601562 C 28.582031 -16.308594 27.558594 -16.757812 26.125 -16.949219 L 24.007812 -17.230469 L 24.007812 -20.988281 L 25.378906 -21.65625 C 26.695312 -22.296875 27.675781 -23.203125 28.316406 -24.378906 C 29.007812 -25.640625 29.355469 -27.261719 29.355469 -29.242188 C 29.355469 -30.070312 29.226562 -30.769531 28.964844 -31.332031 C 28.734375 -31.828125 28.386719 -32.246094 27.917969 -32.582031 C 26.703125 -33.449219 24.898438 -33.882812 22.496094 -33.882812 Z M 19.558594 -28.714844 L 18.449219 -21.683594 L 16.042969 -22.0625 L 16.042969 -24.503906 L 17.292969 -24.503906 C 18.566406 -24.503906 19.4375 -24.6875 19.910156 -25.058594 C 20.203125 -25.285156 20.347656 -25.714844 20.347656 -26.351562 C 20.347656 -26.40625 20.34375 -26.453125 20.335938 -26.484375 C 20.335938 -26.480469 20.339844 -26.472656 20.347656 -26.457031 C 20.375 -26.40625 20.394531 -26.375 20.417969 -26.363281 C 20.328125 -26.421875 20.136719 -26.476562 19.84375 -26.53125 C 19.390625 -26.613281 18.8125 -26.65625 18.113281 -26.65625 L 17.148438 -26.65625 L 17.148438 -29.097656 Z M 15.066406 -31.535156 L 18.113281 -31.535156 C 20.289062 -31.535156 21.929688 -31.183594 23.035156 -30.480469 C 23.761719 -30.015625 24.3125 -29.417969 24.691406 -28.675781 C 25.046875 -27.984375 25.226562 -27.207031 25.226562 -26.351562 C 25.226562 -25.304688 25.046875 -24.359375 24.683594 -23.515625 C 24.292969 -22.59375 23.703125 -21.828125 22.914062 -21.210938 C 21.558594 -20.152344 19.683594 -19.625 17.292969 -19.625 L 13.1875 -19.625 L 14.738281 -29.476562 Z M 13.679688 -9.664062 L 15.800781 -9.664062 C 16.960938 -9.664062 17.929688 -9.746094 18.699219 -9.914062 C 19.296875 -10.039062 19.726562 -10.199219 19.992188 -10.394531 C 20.214844 -10.558594 20.375 -10.742188 20.472656 -10.941406 C 20.582031 -11.167969 20.636719 -11.453125 20.636719 -11.800781 C 20.636719 -11.992188 20.617188 -12.121094 20.585938 -12.191406 L 20.574219 -12.1875 C 20.414062 -12.285156 20.125 -12.367188 19.707031 -12.441406 C 19.128906 -12.539062 18.40625 -12.589844 17.535156 -12.589844 L 14.886719 -12.589844 L 14.886719 -15.03125 L 17.296875 -14.65625 L 16.089844 -6.855469 L 13.679688 -7.226562 Z M 10.835938 -4.785156 L 12.792969 -17.46875 L 17.535156 -17.46875 C 20.007812 -17.46875 21.851562 -17.105469 23.070312 -16.378906 C 23.894531 -15.886719 24.515625 -15.222656 24.9375 -14.390625 C 25.320312 -13.628906 25.515625 -12.765625 25.515625 -11.800781 C 25.515625 -10.707031 25.296875 -9.707031 24.859375 -8.808594 C 24.410156 -7.886719 23.75 -7.105469 22.882812 -6.464844 C 21.359375 -5.347656 19 -4.785156 15.800781 -4.785156 Z M 10.835938 -4.785156 "/></g></g></g><g fill="#000000" fill-opacity="1"><g transform="translate(92.115367, 202.124987)"><g><path d="M 31.890625 -35.945312 L 30.316406 -25.886719 L 17.003906 -25.886719 L 17.003906 -28.324219 L 19.414062 -27.941406 L 18.449219 -21.875 L 16.042969 -22.253906 L 16.042969 -24.695312 L 29.539062 -24.695312 L 27.523438 -11.820312 L 14.789062 -11.820312 L 14.789062 -14.257812 L 17.195312 -13.871094 L 16.183594 -7.609375 L 13.777344 -7.996094 L 13.777344 -10.4375 L 27.851562 -10.4375 L 25.835938 2.4375 L 0.230469 2.4375 L 6.730469 -38.761719 L 32.332031 -38.761719 Z M 27.070312 -36.699219 L 29.480469 -36.320312 L 29.480469 -33.882812 L 8.816406 -33.882812 L 8.816406 -36.320312 L 11.226562 -35.941406 L 5.492188 0.378906 L 3.082031 0 L 3.082031 -2.4375 L 23.75 -2.4375 L 23.75 0 L 21.339844 -0.378906 L 22.59375 -8.375 L 25 -7.996094 L 25 -5.558594 L 10.914062 -5.558594 L 12.710938 -16.699219 L 25.433594 -16.699219 L 25.433594 -14.257812 L 23.023438 -14.636719 L 24.277344 -22.632812 L 26.6875 -22.253906 L 26.6875 -19.816406 L 13.183594 -19.816406 L 14.921875 -30.765625 L 28.230469 -30.765625 L 28.230469 -28.324219 L 25.820312 -28.703125 Z M 27.070312 -36.699219 "/></g></g></g><g fill="#000000" fill-opacity="1"><g transform="translate(113.402234, 202.124987)"><g><path d="M 33.480469 -35.945312 L 31.90625 -25.886719 L 22.015625 -25.886719 L 22.015625 -28.324219 L 24.425781 -27.945312 L 19.617188 2.4375 L 5.238281 2.4375 L 10.164062 -28.707031 L 12.574219 -28.324219 L 12.574219 -25.886719 L 1.917969 -25.886719 L 3.933594 -38.761719 L 33.921875 -38.761719 Z M 28.660156 -36.699219 L 31.070312 -36.320312 L 31.070312 -33.882812 L 6.023438 -33.882812 L 6.023438 -36.320312 L 8.429688 -35.945312 L 7.179688 -27.949219 L 4.769531 -28.324219 L 4.769531 -30.765625 L 15.429688 -30.765625 L 10.503906 0.382812 L 8.09375 0 L 8.09375 -2.4375 L 17.535156 -2.4375 L 17.535156 0 L 15.125 -0.382812 L 19.929688 -30.765625 L 29.820312 -30.765625 L 29.820312 -28.324219 L 27.410156 -28.703125 Z M 28.660156 -36.699219 "/></g></g></g><g fill="#000000" fill-opacity="1"><g transform="translate(133.870311, 202.124987)"><g><path d="M 31.890625 -35.945312 L 30.316406 -25.886719 L 17.003906 -25.886719 L 17.003906 -28.324219 L 19.414062 -27.941406 L 18.449219 -21.875 L 16.042969 -22.253906 L 16.042969 -24.695312 L 29.539062 -24.695312 L 27.523438 -11.820312 L 14.789062 -11.820312 L 14.789062 -14.257812 L 17.195312 -13.871094 L 16.183594 -7.609375 L 13.777344 -7.996094 L 13.777344 -10.4375 L 27.851562 -10.4375 L 25.835938 2.4375 L 0.230469 2.4375 L 6.730469 -38.761719 L 32.332031 -38.761719 Z M 27.070312 -36.699219 L 29.480469 -36.320312 L 29.480469 -33.882812 L 8.816406 -33.882812 L 8.816406 -36.320312 L 11.226562 -35.941406 L 5.492188 0.378906 L 3.082031 0 L 3.082031 -2.4375 L 23.75 -2.4375 L 23.75 0 L 21.339844 -0.378906 L 22.59375 -8.375 L 25 -7.996094 L 25 -5.558594 L 10.914062 -5.558594 L 12.710938 -16.699219 L 25.433594 -16.699219 L 25.433594 -14.257812 L 23.023438 -14.636719 L 24.277344 -22.632812 L 26.6875 -22.253906 L 26.6875 -19.816406 L 13.183594 -19.816406 L 14.921875 -30.765625 L 28.230469 -30.765625 L 28.230469 -28.324219 L 25.820312 -28.703125 Z M 27.070312 -36.699219 "/></g></g></g><g fill="#000000" fill-opacity="1"><g transform="translate(155.157179, 202.124987)"><g><path d="M 20.667969 -35.941406 L 16.1875 -7.617188 L 13.777344 -7.996094 L 13.777344 -10.4375 L 27.949219 -10.4375 L 25.933594 2.4375 L 0.230469 2.4375 L 6.730469 -38.761719 L 21.113281 -38.761719 Z M 15.847656 -36.703125 L 18.257812 -36.320312 L 18.257812 -33.882812 L 8.816406 -33.882812 L 8.816406 -36.320312 L 11.226562 -35.941406 L 5.492188 0.378906 L 3.082031 0 L 3.082031 -2.4375 L 23.84375 -2.4375 L 23.84375 0 L 21.4375 -0.378906 L 22.6875 -8.375 L 25.097656 -7.996094 L 25.097656 -5.558594 L 10.921875 -5.558594 Z M 15.847656 -36.703125 "/></g></g></g><g fill="#000000" fill-opacity="1"><g transform="translate(173.795025, 202.124987)"><g><path d="M 30.738281 -22.917969 C 30.242188 -23.78125 29.527344 -24.449219 28.597656 -24.921875 C 27.578125 -25.4375 26.445312 -25.695312 25.195312 -25.695312 C 22.832031 -25.695312 20.746094 -24.769531 18.945312 -22.914062 C 17.125 -21.042969 16.214844 -18.832031 16.214844 -16.28125 C 16.214844 -14.5625 16.738281 -13.195312 17.785156 -12.179688 C 18.855469 -11.144531 20.328125 -10.628906 22.207031 -10.628906 C 23.40625 -10.628906 24.625 -10.902344 25.867188 -11.453125 C 27.148438 -12.023438 28.277344 -12.792969 29.25 -13.769531 L 34.585938 -19.105469 L 31.316406 1.125 L 29.914062 1.589844 C 29.195312 1.832031 27.964844 2.183594 26.230469 2.644531 C 24.339844 3.148438 22.453125 3.402344 20.570312 3.402344 C 17.261719 3.402344 14.171875 2.683594 11.289062 1.242188 C 8.371094 -0.214844 6.015625 -2.269531 4.21875 -4.917969 C 2.386719 -7.617188 1.453125 -10.742188 1.414062 -14.28125 C 1.414062 -18.847656 2.535156 -23.0625 4.78125 -26.925781 C 7.015625 -30.777344 10.105469 -33.871094 14.050781 -36.203125 C 18.015625 -38.550781 22.117188 -39.722656 26.351562 -39.722656 C 29.378906 -39.722656 32.476562 -39.050781 35.640625 -37.699219 L 37.398438 -36.949219 L 34.164062 -16.960938 Z M 34.96875 -25.351562 L 32.855469 -24.132812 L 30.445312 -24.523438 L 32.277344 -35.84375 L 34.683594 -35.453125 L 33.726562 -33.210938 C 31.175781 -34.300781 28.714844 -34.847656 26.351562 -34.847656 C 23.007812 -34.847656 19.734375 -33.898438 16.539062 -32.007812 C 13.320312 -30.105469 10.808594 -27.59375 8.996094 -24.476562 C 7.195312 -21.371094 6.292969 -17.988281 6.292969 -14.332031 C 6.320312 -11.773438 6.972656 -9.546875 8.257812 -7.65625 C 9.574219 -5.710938 11.3125 -4.199219 13.472656 -3.121094 C 15.664062 -2.023438 18.03125 -1.476562 20.570312 -1.476562 C 22.027344 -1.476562 23.496094 -1.671875 24.976562 -2.066406 C 26.613281 -2.503906 27.746094 -2.828125 28.375 -3.035156 L 29.144531 -0.722656 L 26.738281 -1.113281 L 28.566406 -12.433594 L 30.976562 -12.042969 L 32.699219 -10.320312 C 31.296875 -8.917969 29.679688 -7.808594 27.84375 -6.996094 C 25.972656 -6.164062 24.09375 -5.75 22.207031 -5.75 C 19.011719 -5.75 16.40625 -6.726562 14.390625 -8.675781 C 12.355469 -10.648438 11.339844 -13.183594 11.339844 -16.28125 C 11.339844 -20.152344 12.707031 -23.5 15.449219 -26.316406 C 18.207031 -29.152344 21.457031 -30.570312 25.195312 -30.570312 C 27.21875 -30.570312 29.089844 -30.140625 30.800781 -29.273438 C 32.597656 -28.363281 33.988281 -27.054688 34.96875 -25.351562 Z M 34.96875 -25.351562 "/></g></g></g><g fill="#000000" fill-opacity="1"><g transform="translate(200.379947, 202.124987)"><g><path d="M 47.09375 -21.675781 C 47.09375 -17.765625 45.984375 -13.753906 43.769531 -9.632812 C 41.523438 -5.46875 38.355469 -2.210938 34.261719 0.140625 C 30.191406 2.476562 25.820312 3.644531 21.148438 3.644531 C 15.394531 3.644531 10.695312 1.921875 7.042969 -1.527344 C 3.355469 -5.011719 1.511719 -9.558594 1.511719 -15.175781 C 1.511719 -19.6875 2.703125 -23.851562 5.085938 -27.667969 C 7.445312 -31.449219 10.652344 -34.445312 14.703125 -36.65625 C 18.746094 -38.863281 22.933594 -39.964844 27.265625 -39.964844 C 30.761719 -39.964844 34.039062 -39.207031 37.09375 -37.6875 C 40.210938 -36.136719 42.65625 -33.976562 44.425781 -31.203125 C 46.203125 -28.410156 47.09375 -25.234375 47.09375 -21.675781 Z M 42.21875 -21.675781 C 42.21875 -24.285156 41.582031 -26.585938 40.3125 -28.578125 C 39.027344 -30.589844 37.234375 -32.171875 34.921875 -33.320312 C 32.550781 -34.496094 30 -35.085938 27.265625 -35.085938 C 23.761719 -35.085938 20.355469 -34.183594 17.042969 -32.375 C 13.738281 -30.570312 11.132812 -28.140625 9.222656 -25.082031 C 7.332031 -22.058594 6.390625 -18.753906 6.390625 -15.175781 C 6.390625 -10.960938 7.722656 -7.59375 10.394531 -5.074219 C 13.101562 -2.515625 16.6875 -1.234375 21.148438 -1.234375 C 24.953125 -1.234375 28.515625 -2.1875 31.832031 -4.089844 C 35.125 -5.980469 37.671875 -8.597656 39.472656 -11.945312 C 41.300781 -15.34375 42.21875 -18.585938 42.21875 -21.675781 Z M 22.59375 -10.386719 C 24.292969 -10.386719 25.863281 -10.859375 27.304688 -11.796875 C 28.824219 -12.789062 30.03125 -14.066406 30.929688 -15.636719 C 31.804688 -17.171875 32.246094 -18.65625 32.246094 -20.089844 C 32.246094 -21.683594 31.632812 -23.046875 30.410156 -24.167969 C 29.125 -25.34375 27.582031 -25.933594 25.773438 -25.933594 C 24.296875 -25.933594 22.808594 -25.523438 21.3125 -24.695312 C 19.804688 -23.863281 18.589844 -22.746094 17.671875 -21.347656 C 16.796875 -20.023438 16.359375 -18.542969 16.359375 -16.910156 C 16.359375 -14.960938 16.945312 -13.382812 18.113281 -12.167969 C 19.253906 -10.980469 20.746094 -10.386719 22.59375 -10.386719 Z M 22.59375 -5.507812 C 19.363281 -5.507812 16.699219 -6.601562 14.597656 -8.785156 C 12.519531 -10.945312 11.484375 -13.652344 11.484375 -16.910156 C 11.484375 -19.515625 12.1875 -21.886719 13.59375 -24.027344 C 14.953125 -26.097656 16.742188 -27.746094 18.957031 -28.96875 C 21.1875 -30.199219 23.457031 -30.8125 25.773438 -30.8125 C 28.847656 -30.8125 31.492188 -29.796875 33.707031 -27.761719 C 35.984375 -25.671875 37.125 -23.113281 37.125 -20.089844 C 37.125 -17.792969 36.46875 -15.503906 35.164062 -13.21875 C 33.878906 -10.964844 32.144531 -9.128906 29.972656 -7.710938 C 27.71875 -6.242188 25.261719 -5.507812 22.59375 -5.507812 Z M 22.59375 -5.507812 "/></g></g></g><g fill="#000000" fill-opacity="1"><g transform="translate(237.898106, 202.124987)"><g><path d="M 23.171875 -38.761719 C 27.007812 -38.761719 30.132812 -37.816406 32.546875 -35.933594 C 33.855469 -34.914062 34.839844 -33.664062 35.496094 -32.183594 C 36.132812 -30.761719 36.449219 -29.152344 36.449219 -27.363281 C 36.449219 -23.722656 35.363281 -20.503906 33.191406 -17.703125 C 30.976562 -14.847656 28.136719 -13.109375 24.664062 -12.484375 L 24.230469 -14.886719 L 26.316406 -16.152344 L 37.625 2.4375 L 19.996094 2.4375 L 12.636719 -12.914062 L 14.835938 -13.96875 L 14.835938 -11.53125 L 14.742188 -11.53125 L 14.742188 -13.96875 L 17.148438 -13.589844 L 14.609375 2.4375 L 0.230469 2.4375 L 6.730469 -38.761719 Z M 23.171875 -33.882812 L 8.816406 -33.882812 L 8.816406 -36.320312 L 11.226562 -35.941406 L 5.492188 0.378906 L 3.082031 0 L 3.082031 -2.4375 L 12.523438 -2.4375 L 12.523438 0 L 10.117188 -0.382812 L 12.65625 -16.410156 L 16.371094 -16.410156 L 23.734375 -1.054688 L 21.53125 0 L 21.53125 -2.4375 L 33.289062 -2.4375 L 33.289062 0 L 31.203125 1.269531 L 20.296875 -16.65625 L 23.800781 -17.285156 C 26.042969 -17.6875 27.886719 -18.824219 29.335938 -20.691406 C 30.824219 -22.613281 31.570312 -24.835938 31.570312 -27.363281 C 31.570312 -28.460938 31.394531 -29.40625 31.042969 -30.199219 C 30.710938 -30.9375 30.214844 -31.566406 29.546875 -32.085938 C 28.011719 -33.285156 25.886719 -33.882812 23.171875 -33.882812 Z M 15.703125 -22.480469 L 17.003906 -22.480469 C 18.671875 -22.480469 19.894531 -22.777344 20.679688 -23.375 C 20.960938 -23.589844 21.167969 -23.851562 21.304688 -24.15625 C 21.46875 -24.519531 21.550781 -24.980469 21.550781 -25.53125 C 21.550781 -25.707031 21.527344 -25.835938 21.484375 -25.917969 C 21.449219 -25.980469 21.375 -26.046875 21.253906 -26.121094 C 20.664062 -26.476562 19.617188 -26.65625 18.113281 -26.65625 L 17.148438 -26.65625 L 17.148438 -29.097656 L 19.558594 -28.710938 L 18.113281 -19.65625 L 15.703125 -20.039062 Z M 12.84375 -17.601562 L 15.070312 -31.535156 L 18.113281 -31.535156 C 20.527344 -31.535156 22.417969 -31.121094 23.785156 -30.289062 C 24.648438 -29.769531 25.304688 -29.09375 25.761719 -28.265625 C 26.207031 -27.453125 26.429688 -26.542969 26.429688 -25.53125 C 26.429688 -24.285156 26.207031 -23.164062 25.757812 -22.164062 C 25.285156 -21.101562 24.578125 -20.214844 23.640625 -19.496094 C 21.980469 -18.234375 19.769531 -17.601562 17.003906 -17.601562 Z M 12.84375 -17.601562 "/></g></g></g><g fill="#000000" fill-opacity="1"><g transform="translate(265.446322, 202.124987)"><g><path d="M 23.507812 -38.761719 C 27.566406 -38.761719 30.828125 -37.804688 33.292969 -35.886719 C 34.628906 -34.847656 35.632812 -33.558594 36.304688 -32.023438 C 36.945312 -30.558594 37.269531 -28.890625 37.269531 -27.023438 C 37.269531 -24.289062 36.675781 -21.503906 35.488281 -18.667969 C 34.207031 -15.597656 32.125 -13.285156 29.246094 -11.726562 C 26.488281 -10.238281 23.417969 -9.53125 20.035156 -9.605469 L 14.453125 -9.605469 L 14.453125 -12.042969 L 16.859375 -11.65625 L 14.605469 2.4375 L 0.230469 2.4375 L 6.730469 -38.761719 Z M 23.507812 -33.882812 L 8.816406 -33.882812 L 8.816406 -36.320312 L 11.226562 -35.941406 L 5.492188 0.378906 L 3.082031 0 L 3.082031 -2.4375 L 12.523438 -2.4375 L 12.523438 0 L 10.117188 -0.386719 L 12.371094 -14.480469 L 20.140625 -14.480469 C 22.664062 -14.425781 24.925781 -14.9375 26.925781 -16.019531 C 28.796875 -17.03125 30.148438 -18.539062 30.988281 -20.546875 C 31.921875 -22.78125 32.390625 -24.941406 32.390625 -27.023438 C 32.390625 -29.28125 31.691406 -30.949219 30.296875 -32.035156 C 28.714844 -33.265625 26.449219 -33.882812 23.507812 -33.882812 Z M 19.464844 -28.339844 L 18.066406 -19.28125 L 15.65625 -19.65625 L 15.65625 -22.09375 L 17.96875 -22.09375 C 19.089844 -22.09375 19.996094 -22.1875 20.695312 -22.371094 C 21.167969 -22.5 21.484375 -22.644531 21.648438 -22.808594 C 22.128906 -23.296875 22.371094 -24.171875 22.371094 -25.433594 C 22.371094 -25.667969 22.347656 -25.832031 22.304688 -25.925781 C 22.308594 -25.917969 22.316406 -25.910156 22.324219 -25.902344 C 22.1875 -25.988281 21.953125 -26.066406 21.621094 -26.132812 C 21.144531 -26.226562 20.554688 -26.273438 19.847656 -26.273438 L 17.054688 -26.273438 L 17.054688 -28.710938 Z M 14.960938 -31.148438 L 19.847656 -31.148438 C 22.050781 -31.148438 23.746094 -30.773438 24.933594 -30.023438 C 25.730469 -29.523438 26.324219 -28.84375 26.722656 -27.988281 C 27.074219 -27.242188 27.246094 -26.390625 27.246094 -25.433594 C 27.246094 -22.84375 26.539062 -20.828125 25.125 -19.390625 C 23.703125 -17.941406 21.316406 -17.214844 17.96875 -17.214844 L 12.8125 -17.214844 L 14.640625 -29.082031 Z M 14.960938 -31.148438 "/></g></g></g><g fill="#000000" fill-opacity="1"><g transform="translate(292.079377, 202.124987)"><g><path d="M 17.179688 -5.636719 C 17.179688 -3.179688 16.25 -1.050781 14.386719 0.742188 C 12.550781 2.515625 10.46875 3.402344 8.140625 3.402344 C 6.136719 3.402344 4.429688 2.726562 3.027344 1.371094 C 1.597656 -0.0078125 0.886719 -1.75 0.886719 -3.855469 C 0.886719 -6.289062 1.824219 -8.390625 3.699219 -10.15625 C 5.535156 -11.882812 7.609375 -12.746094 9.921875 -12.746094 C 11.960938 -12.746094 13.671875 -12.078125 15.0625 -10.738281 C 16.472656 -9.375 17.179688 -7.675781 17.179688 -5.636719 Z M 12.300781 -5.636719 C 12.300781 -6.292969 12.09375 -6.824219 11.675781 -7.230469 C 11.230469 -7.65625 10.648438 -7.871094 9.921875 -7.871094 C 8.898438 -7.871094 7.9375 -7.449219 7.042969 -6.605469 C 6.191406 -5.804688 5.761719 -4.886719 5.761719 -3.855469 C 5.761719 -3.132812 5.980469 -2.558594 6.414062 -2.140625 C 6.875 -1.695312 7.449219 -1.476562 8.140625 -1.476562 C 9.15625 -1.476562 10.109375 -1.90625 11 -2.765625 C 11.867188 -3.605469 12.300781 -4.5625 12.300781 -5.636719 Z M 12.300781 -5.636719 "/></g></g></g><g fill="#ffffff" fill-opacity="1"><g transform="translate(64.711655, 202.124987)"><g><path d="M 22.5 -36.328125 C 25.414062 -36.328125 27.691406 -35.738281 29.328125 -34.5625 C 30.972656 -33.394531 31.796875 -31.617188 31.796875 -29.234375 C 31.796875 -24.453125 30.015625 -21.195312 26.453125 -19.46875 L 26.453125 -19.359375 C 30.523438 -18.816406 32.5625 -16.488281 32.5625 -12.375 C 32.5625 -8.488281 31.234375 -5.453125 28.578125 -3.265625 C 25.929688 -1.085938 22.363281 0 17.875 0 L 3.078125 0 L 8.8125 -36.328125 Z M 17.15625 -29.09375 L 16.046875 -22.0625 L 17.296875 -22.0625 C 20.953125 -22.0625 22.78125 -23.488281 22.78125 -26.34375 C 22.78125 -27.28125 22.425781 -27.972656 21.71875 -28.421875 C 21.019531 -28.867188 19.816406 -29.09375 18.109375 -29.09375 Z M 13.6875 -7.21875 L 15.796875 -7.21875 C 18.460938 -7.21875 20.34375 -7.617188 21.4375 -8.421875 C 22.53125 -9.234375 23.078125 -10.359375 23.078125 -11.796875 C 23.078125 -12.953125 22.65625 -13.78125 21.8125 -14.28125 C 20.976562 -14.78125 19.550781 -15.03125 17.53125 -15.03125 L 14.890625 -15.03125 Z M 13.6875 -7.21875 "/></g></g></g><g fill="#ffffff" fill-opacity="1"><g transform="translate(92.115367, 202.124987)"><g><path d="M 29.484375 -36.328125 L 28.234375 -28.328125 L 17 -28.328125 L 16.046875 -22.25 L 26.6875 -22.25 L 25.4375 -14.265625 L 14.78125 -14.265625 L 13.78125 -8 L 25 -8 L 23.75 0 L 3.078125 0 L 8.8125 -36.328125 Z M 29.484375 -36.328125 "/></g></g></g><g fill="#ffffff" fill-opacity="1"><g transform="translate(113.402234, 202.124987)"><g><path d="M 31.078125 -36.328125 L 29.8125 -28.328125 L 22.015625 -28.328125 L 17.53125 0 L 8.09375 0 L 12.578125 -28.328125 L 4.765625 -28.328125 L 6.015625 -36.328125 Z M 31.078125 -36.328125 "/></g></g></g><g fill="#ffffff" fill-opacity="1"><g transform="translate(133.870311, 202.124987)"><g><path d="M 29.484375 -36.328125 L 28.234375 -28.328125 L 17 -28.328125 L 16.046875 -22.25 L 26.6875 -22.25 L 25.4375 -14.265625 L 14.78125 -14.265625 L 13.78125 -8 L 25 -8 L 23.75 0 L 3.078125 0 L 8.8125 -36.328125 Z M 29.484375 -36.328125 "/></g></g></g><g fill="#ffffff" fill-opacity="1"><g transform="translate(155.157179, 202.124987)"><g><path d="M 18.25 -36.328125 L 13.78125 -8 L 25.09375 -8 L 23.84375 0 L 3.078125 0 L 8.8125 -36.328125 Z M 18.25 -36.328125 "/></g></g></g><g fill="#ffffff" fill-opacity="1"><g transform="translate(173.795025, 202.124987)"><g><path d="M 32.859375 -24.140625 C 32.117188 -25.421875 31.066406 -26.40625 29.703125 -27.09375 C 28.335938 -27.78125 26.832031 -28.125 25.1875 -28.125 C 22.144531 -28.125 19.484375 -26.953125 17.203125 -24.609375 C 14.921875 -22.265625 13.78125 -19.488281 13.78125 -16.28125 C 13.78125 -13.875 14.550781 -11.921875 16.09375 -10.421875 C 17.632812 -8.929688 19.671875 -8.1875 22.203125 -8.1875 C 23.742188 -8.1875 25.289062 -8.53125 26.84375 -9.21875 C 28.40625 -9.914062 29.78125 -10.859375 30.96875 -12.046875 L 29.140625 -0.71875 C 28.460938 -0.5 27.28125 -0.164062 25.59375 0.28125 C 23.914062 0.738281 22.238281 0.96875 20.5625 0.96875 C 17.644531 0.96875 14.914062 0.332031 12.375 -0.9375 C 9.84375 -2.207031 7.796875 -3.988281 6.234375 -6.28125 C 4.679688 -8.582031 3.890625 -11.257812 3.859375 -14.3125 C 3.859375 -18.414062 4.867188 -22.207031 6.890625 -25.6875 C 8.910156 -29.175781 11.710938 -31.976562 15.296875 -34.09375 C 18.878906 -36.21875 22.5625 -37.28125 26.34375 -37.28125 C 29.039062 -37.28125 31.820312 -36.671875 34.6875 -35.453125 Z M 32.859375 -24.140625 "/></g></g></g><g fill="#ffffff" fill-opacity="1"><g transform="translate(200.379947, 202.124987)"><g><path d="M 44.65625 -21.671875 C 44.65625 -18.171875 43.640625 -14.539062 41.609375 -10.78125 C 39.585938 -7.03125 36.726562 -4.09375 33.03125 -1.96875 C 29.34375 0.144531 25.378906 1.203125 21.140625 1.203125 C 16.035156 1.203125 11.894531 -0.296875 8.71875 -3.296875 C 5.539062 -6.296875 3.953125 -10.253906 3.953125 -15.171875 C 3.953125 -19.222656 5.019531 -22.957031 7.15625 -26.375 C 9.289062 -29.789062 12.195312 -32.503906 15.875 -34.515625 C 19.550781 -36.523438 23.347656 -37.53125 27.265625 -37.53125 C 30.378906 -37.53125 33.289062 -36.851562 36 -35.5 C 38.71875 -34.15625 40.835938 -32.285156 42.359375 -29.890625 C 43.890625 -27.492188 44.65625 -24.753906 44.65625 -21.671875 Z M 22.59375 -7.953125 C 24.78125 -7.953125 26.796875 -8.550781 28.640625 -9.75 C 30.484375 -10.957031 31.953125 -12.515625 33.046875 -14.421875 C 34.140625 -16.335938 34.6875 -18.226562 34.6875 -20.09375 C 34.6875 -22.40625 33.8125 -24.363281 32.0625 -25.96875 C 30.3125 -27.570312 28.210938 -28.375 25.765625 -28.375 C 23.878906 -28.375 22.003906 -27.859375 20.140625 -26.828125 C 18.273438 -25.804688 16.769531 -24.425781 15.625 -22.6875 C 14.488281 -20.957031 13.921875 -19.03125 13.921875 -16.90625 C 13.921875 -14.300781 14.726562 -12.15625 16.34375 -10.46875 C 17.96875 -8.789062 20.050781 -7.953125 22.59375 -7.953125 Z M 22.59375 -7.953125 "/></g></g></g><g fill="#ffffff" fill-opacity="1"><g transform="translate(237.898106, 202.124987)"><g><path d="M 23.171875 -36.328125 C 26.441406 -36.328125 29.066406 -35.554688 31.046875 -34.015625 C 33.023438 -32.472656 34.015625 -30.253906 34.015625 -27.359375 C 34.015625 -24.273438 33.097656 -21.550781 31.265625 -19.1875 C 29.429688 -16.832031 27.085938 -15.398438 24.234375 -14.890625 L 33.28125 0 L 21.53125 0 L 14.84375 -13.96875 L 14.734375 -13.96875 L 12.53125 0 L 3.078125 0 L 8.8125 -36.328125 Z M 15.703125 -20.046875 L 17 -20.046875 C 19.21875 -20.046875 20.9375 -20.507812 22.15625 -21.4375 C 23.375 -22.363281 23.984375 -23.726562 23.984375 -25.53125 C 23.984375 -27.90625 22.023438 -29.09375 18.109375 -29.09375 L 17.15625 -29.09375 Z M 15.703125 -20.046875 "/></g></g></g><g fill="#ffffff" fill-opacity="1"><g transform="translate(265.446322, 202.124987)"><g><path d="M 23.515625 -36.328125 C 27.015625 -36.328125 29.773438 -35.535156 31.796875 -33.953125 C 33.816406 -32.378906 34.828125 -30.070312 34.828125 -27.03125 C 34.828125 -24.613281 34.296875 -22.132812 33.234375 -19.59375 C 32.179688 -17.0625 30.460938 -15.15625 28.078125 -13.875 C 25.703125 -12.59375 23.039062 -11.984375 20.09375 -12.046875 L 14.453125 -12.046875 L 12.53125 0 L 3.078125 0 L 8.8125 -36.328125 Z M 17.046875 -28.703125 L 15.65625 -19.65625 L 17.96875 -19.65625 C 20.632812 -19.65625 22.441406 -20.132812 23.390625 -21.09375 C 24.335938 -22.0625 24.8125 -23.507812 24.8125 -25.4375 C 24.8125 -26.625 24.414062 -27.460938 23.625 -27.953125 C 22.84375 -28.453125 21.582031 -28.703125 19.84375 -28.703125 Z M 17.046875 -28.703125 "/></g></g></g><g fill="#ffffff" fill-opacity="1"><g transform="translate(292.079377, 202.124987)"><g><path d="M 14.734375 -5.640625 C 14.734375 -3.867188 14.050781 -2.320312 12.6875 -1 C 11.320312 0.3125 9.804688 0.96875 8.140625 0.96875 C 6.796875 0.96875 5.65625 0.519531 4.71875 -0.375 C 3.789062 -1.28125 3.328125 -2.441406 3.328125 -3.859375 C 3.328125 -5.585938 4.007812 -7.09375 5.375 -8.375 C 6.738281 -9.664062 8.253906 -10.3125 9.921875 -10.3125 C 11.304688 -10.3125 12.453125 -9.867188 13.359375 -8.984375 C 14.273438 -8.097656 14.734375 -6.984375 14.734375 -5.640625 Z M 14.734375 -5.640625 "/></g></g></g></svg>