<svg xmlns="http://www.w3.org/2000/svg" xmlns:xlink="http://www.w3.org/1999/xlink" width="500" zoomAndPan="magnify" viewBox="0 0 375 374.999991" height="500" preserveAspectRatio="xMidYMid meet" version="1.0"><defs><g/></defs><g fill="#ffffff" fill-opacity="1"><g transform="translate(82.611327, 197.849651)"><g><path d="M 25.015625 -13.109375 L 14.125 -13.109375 C 14.644531 -13.566406 15.035156 -14.117188 15.296875 -14.765625 C 15.566406 -15.410156 15.671875 -16.0625 15.609375 -16.71875 C 15.546875 -17.394531 15.335938 -18.003906 14.984375 -18.546875 C 14.640625 -19.097656 14.085938 -19.375 13.328125 -19.375 C 12.335938 -19.375 11.5 -18.660156 10.8125 -17.234375 C 10.125 -15.804688 9.78125 -13.816406 9.78125 -11.265625 C 9.78125 -10.503906 9.816406 -9.675781 9.890625 -8.78125 C 9.960938 -7.882812 10.097656 -7.035156 10.296875 -6.234375 C 10.503906 -5.429688 10.804688 -4.765625 11.203125 -4.234375 C 11.609375 -3.710938 12.125 -3.429688 12.75 -3.390625 C 13.195312 -3.367188 13.675781 -3.441406 14.1875 -3.609375 C 14.707031 -3.773438 15.144531 -4.109375 15.5 -4.609375 C 15.863281 -5.117188 16.023438 -5.875 15.984375 -6.875 C 15.960938 -7.65625 15.78125 -8.421875 15.4375 -9.171875 C 15.101562 -9.929688 14.707031 -10.628906 14.25 -11.265625 L 25.015625 -11.265625 L 25.015625 2.78125 L 17.15625 2.78125 C 17.257812 2.238281 17.375 1.625 17.5 0.9375 C 17.632812 0.25 17.722656 -0.390625 17.765625 -0.984375 C 17.191406 0.285156 16.394531 1.289062 15.375 2.03125 C 14.363281 2.769531 12.992188 3.140625 11.265625 3.140625 C 9.410156 3.140625 7.828125 2.769531 6.515625 2.03125 C 5.210938 1.289062 4.148438 0.269531 3.328125 -1.03125 C 2.503906 -2.34375 1.898438 -3.867188 1.515625 -5.609375 C 1.140625 -7.359375 0.953125 -9.242188 0.953125 -11.265625 C 0.953125 -14.179688 1.347656 -16.726562 2.140625 -18.90625 C 2.929688 -21.09375 4.222656 -22.789062 6.015625 -24 C 7.804688 -25.21875 10.191406 -25.828125 13.171875 -25.828125 C 15.296875 -25.828125 17.109375 -25.492188 18.609375 -24.828125 C 20.109375 -24.171875 21.328125 -23.253906 22.265625 -22.078125 C 23.203125 -20.910156 23.894531 -19.554688 24.34375 -18.015625 C 24.789062 -16.472656 25.015625 -14.835938 25.015625 -13.109375 Z M 25.015625 -13.109375 "/></g></g></g><g fill="#ffffff" fill-opacity="1"><g transform="translate(108.946115, 197.849651)"><g><path d="M 11.296875 -3.671875 C 12.296875 -3.691406 13.320312 -3.800781 14.375 -4 C 15.425781 -4.207031 16.445312 -4.4375 17.4375 -4.6875 C 18.457031 -4.957031 19.347656 -5.234375 20.109375 -5.515625 C 20.878906 -5.804688 21.539062 -6.054688 22.09375 -6.265625 L 22.09375 2.40625 L 1.265625 2.40625 L 1.265625 -25.171875 L 21.8125 -25.171875 L 21.8125 -17.828125 L 9.625 -17.828125 L 9.625 -14.96875 L 20.953125 -14.96875 L 20.953125 -7.921875 L 9.625 -7.921875 L 9.625 -4.171875 L 9.71875 -3.984375 C 9.800781 -3.898438 9.957031 -3.820312 10.1875 -3.75 C 10.425781 -3.675781 10.796875 -3.648438 11.296875 -3.671875 Z M 11.296875 -3.671875 "/></g></g></g><g fill="#ffffff" fill-opacity="1"><g transform="translate(132.305576, 197.849651)"><g><path d="M 2 -3.890625 L 12.59375 -3.890625 C 14.28125 -3.890625 15.125 -6.210938 15.125 -10.859375 C 15.125 -15.398438 14.28125 -17.671875 12.59375 -17.671875 C 10.925781 -17.671875 10.09375 -15.398438 10.09375 -10.859375 C 10.09375 -8.492188 10.296875 -6.710938 10.703125 -5.515625 L 1.546875 -5.515625 C 1.335938 -6.441406 1.1875 -7.394531 1.09375 -8.375 C 1 -9.351562 0.953125 -10.347656 0.953125 -11.359375 C 0.992188 -16.640625 2.015625 -20.410156 4.015625 -22.671875 C 5.921875 -24.796875 8.769531 -25.859375 12.5625 -25.859375 C 16.382812 -25.859375 19.242188 -24.796875 21.140625 -22.671875 C 23.210938 -20.347656 24.25 -16.578125 24.25 -11.359375 C 24.207031 -6.148438 23.171875 -2.382812 21.140625 -0.0625 C 19.285156 2.03125 16.425781 3.097656 12.5625 3.140625 C 6.988281 3.160156 3.46875 0.816406 2 -3.890625 Z M 2 -3.890625 "/></g></g></g><g fill="#ffffff" fill-opacity="1"><g transform="translate(157.500875, 197.849651)"><g><path d="M 24.4375 -25.171875 L 24.4375 -14.75 C 21.925781 -16.375 19.351562 -17.492188 16.71875 -18.109375 L 16.71875 2.40625 L 8.109375 2.40625 L 8.109375 -18.109375 C 5.441406 -17.492188 2.84375 -16.375 0.3125 -14.75 L 0.3125 -25.171875 Z M 24.4375 -25.171875 "/></g></g></g><g fill="#ffffff" fill-opacity="1"><g transform="translate(182.253048, 197.849651)"><g><path d="M 1.265625 -25.171875 L 10 -25.171875 L 10 2.40625 L 1.265625 2.40625 Z M 1.265625 -25.171875 "/></g></g></g><g fill="#ffffff" fill-opacity="1"><g transform="translate(193.5213, 197.849651)"><g><path d="M 9.4375 2.40625 L 1.265625 2.40625 L 1.265625 -25.171875 L 9.4375 -25.171875 C 19 -25.085938 23.78125 -21.273438 23.78125 -13.734375 C 23.78125 -11.796875 23.476562 -10.097656 22.875 -8.640625 C 22.269531 -7.179688 21.457031 -5.976562 20.4375 -5.03125 C 19.414062 -4.082031 18.273438 -3.390625 17.015625 -2.953125 C 15.753906 -2.523438 14.46875 -2.363281 13.15625 -2.46875 C 11.851562 -2.570312 10.613281 -2.953125 9.4375 -3.609375 Z M 9.4375 -18.859375 L 9.4375 -12.15625 C 9.5 -11.375 9.769531 -10.753906 10.25 -10.296875 C 10.738281 -9.847656 11.320312 -9.570312 12 -9.46875 C 12.675781 -9.363281 13.316406 -9.457031 13.921875 -9.75 C 14.535156 -10.039062 15.019531 -10.546875 15.375 -11.265625 C 15.738281 -11.984375 15.835938 -12.9375 15.671875 -14.125 C 15.222656 -17.332031 13.144531 -18.910156 9.4375 -18.859375 Z M 9.4375 -18.859375 "/></g></g></g><g fill="#ffffff" fill-opacity="1"><g transform="translate(217.925287, 197.849651)"><g><path d="M 0.734375 -17.03125 C 0.734375 -19.082031 1.175781 -20.738281 2.0625 -22 C 2.945312 -23.269531 4.144531 -24.203125 5.65625 -24.796875 C 7.164062 -25.398438 8.835938 -25.703125 10.671875 -25.703125 C 11.285156 -25.703125 11.90625 -25.671875 12.53125 -25.609375 C 13.882812 -25.484375 15.054688 -25.335938 16.046875 -25.171875 C 17.035156 -25.015625 18.039062 -24.851562 19.0625 -24.6875 C 19.625 -24.601562 20.222656 -24.507812 20.859375 -24.40625 C 21.492188 -24.300781 22.179688 -24.1875 22.921875 -24.0625 L 22.921875 -12.921875 C 22.671875 -13.148438 22.238281 -13.519531 21.625 -14.03125 C 21.007812 -14.550781 20.28125 -15.132812 19.4375 -15.78125 C 18.59375 -16.425781 17.695312 -17.082031 16.75 -17.75 C 15.800781 -18.425781 14.859375 -19.050781 13.921875 -19.625 C 12.992188 -20.195312 12.128906 -20.65625 11.328125 -21 C 10.523438 -21.351562 9.863281 -21.53125 9.34375 -21.53125 C 8.5625 -21.53125 8.148438 -21.242188 8.109375 -20.671875 C 8.066406 -20.140625 8.222656 -19.675781 8.578125 -19.28125 C 8.929688 -18.894531 9.429688 -18.535156 10.078125 -18.203125 C 10.722656 -17.867188 11.425781 -17.519531 12.1875 -17.15625 C 13.132812 -16.71875 14.148438 -16.222656 15.234375 -15.671875 C 16.328125 -15.117188 17.394531 -14.503906 18.4375 -13.828125 C 19.476562 -13.160156 20.421875 -12.398438 21.265625 -11.546875 C 22.117188 -10.703125 22.800781 -9.769531 23.3125 -8.75 C 23.832031 -7.726562 24.09375 -6.59375 24.09375 -5.34375 C 24.09375 -3.28125 23.660156 -1.632812 22.796875 -0.40625 C 21.929688 0.8125 20.757812 1.679688 19.28125 2.203125 C 17.800781 2.734375 16.144531 3 14.3125 3 C 13.65625 3 12.976562 2.96875 12.28125 2.90625 C 10.46875 2.738281 8.644531 2.507812 6.8125 2.21875 C 4.988281 1.9375 3.171875 1.648438 1.359375 1.359375 L 1.359375 -9.84375 C 1.546875 -9.632812 1.941406 -9.269531 2.546875 -8.75 C 3.148438 -8.238281 3.882812 -7.644531 4.75 -6.96875 C 5.613281 -6.289062 6.550781 -5.59375 7.5625 -4.875 C 8.570312 -4.15625 9.570312 -3.492188 10.5625 -2.890625 C 11.5625 -2.296875 12.492188 -1.804688 13.359375 -1.421875 C 14.222656 -1.046875 14.929688 -0.859375 15.484375 -0.859375 C 15.859375 -0.859375 16.144531 -0.9375 16.34375 -1.09375 C 16.550781 -1.25 16.675781 -1.441406 16.71875 -1.671875 C 16.820312 -2.203125 16.691406 -2.65625 16.328125 -3.03125 C 15.972656 -3.414062 15.460938 -3.773438 14.796875 -4.109375 C 14.128906 -4.453125 13.40625 -4.800781 12.625 -5.15625 C 11.675781 -5.601562 10.664062 -6.101562 9.59375 -6.65625 C 8.519531 -7.21875 7.457031 -7.835938 6.40625 -8.515625 C 5.363281 -9.191406 4.414062 -9.953125 3.5625 -10.796875 C 2.707031 -11.640625 2.019531 -12.578125 1.5 -13.609375 C 0.988281 -14.640625 0.734375 -15.78125 0.734375 -17.03125 Z M 0.734375 -17.03125 "/></g></g></g><g fill="#ffffff" fill-opacity="1"><g transform="translate(242.993981, 197.849651)"><g><path d="M 1.265625 2.4375 L 1.265625 -25.234375 L 9.21875 -25.234375 C 14.175781 -25.234375 17.675781 -24.617188 19.71875 -23.390625 C 22.101562 -21.929688 23.253906 -19.769531 23.171875 -16.90625 C 23.128906 -15.738281 22.78125 -14.691406 22.125 -13.765625 C 21.46875 -12.835938 20.570312 -12.207031 19.4375 -11.875 C 20.195312 -11.726562 20.890625 -11.351562 21.515625 -10.75 C 22.148438 -10.144531 22.664062 -9.390625 23.0625 -8.484375 C 23.46875 -7.578125 23.695312 -6.570312 23.75 -5.46875 C 23.851562 -2.476562 22.679688 -0.265625 20.234375 1.171875 C 18.609375 2.117188 15.175781 2.539062 9.9375 2.4375 Z M 9.1875 -19.03125 L 9.1875 -16.75 C 9.644531 -16.070312 10.300781 -15.519531 11.15625 -15.09375 C 12.007812 -14.675781 12.796875 -14.476562 13.515625 -14.5 C 13.984375 -14.519531 14.347656 -14.671875 14.609375 -14.953125 C 14.867188 -15.242188 15.039062 -15.578125 15.125 -15.953125 C 15.21875 -16.335938 15.1875 -16.664062 15.03125 -16.9375 C 14.820312 -17.375 14.476562 -17.734375 14 -18.015625 C 13.53125 -18.304688 13 -18.519531 12.40625 -18.65625 C 11.8125 -18.789062 11.226562 -18.882812 10.65625 -18.9375 C 10.09375 -19 9.601562 -19.03125 9.1875 -19.03125 Z M 9.21875 -10.28125 L 9.21875 -4.6875 C 9.570312 -4.195312 10.007812 -3.738281 10.53125 -3.3125 C 11.0625 -2.894531 11.53125 -2.613281 11.9375 -2.46875 C 12.476562 -2.28125 13.007812 -2.226562 13.53125 -2.3125 C 14.050781 -2.394531 14.488281 -2.566406 14.84375 -2.828125 C 15.207031 -3.097656 15.429688 -3.398438 15.515625 -3.734375 C 15.742188 -4.660156 15.617188 -5.445312 15.140625 -6.09375 C 14.671875 -6.738281 13.921875 -7.375 12.890625 -8 C 11.867188 -8.632812 10.644531 -9.394531 9.21875 -10.28125 Z M 9.21875 -10.28125 "/></g></g></g><g fill="#ffffff" fill-opacity="1"><g transform="translate(267.714499, 197.849651)"><g><path d="M 1.265625 2.34375 L 1.265625 -25.171875 L 9.375 -25.171875 C 18.925781 -25.085938 23.703125 -22.140625 23.703125 -16.328125 C 23.703125 -14.796875 23.378906 -13.453125 22.734375 -12.296875 C 22.097656 -11.148438 21.242188 -10.207031 20.171875 -9.46875 C 19.109375 -8.726562 17.925781 -8.210938 16.625 -7.921875 C 15.332031 -7.640625 14.019531 -7.59375 12.6875 -7.78125 C 12.375 -7.488281 12.316406 -7.191406 12.515625 -6.890625 C 12.722656 -6.597656 13.097656 -6.359375 13.640625 -6.171875 C 14.191406 -5.984375 14.859375 -5.878906 15.640625 -5.859375 C 16.421875 -5.835938 17.25 -5.945312 18.125 -6.1875 C 19 -6.425781 19.859375 -6.84375 20.703125 -7.4375 C 21.546875 -8.03125 22.296875 -8.832031 22.953125 -9.84375 L 22.953125 1.453125 C 20.097656 2.273438 17.765625 2.550781 15.953125 2.28125 C 14.140625 2.007812 12.710938 1.238281 11.671875 -0.03125 C 10.640625 -1.300781 9.875 -3 9.375 -5.125 L 9.375 2.34375 Z M 9.375 -20.265625 L 9.375 -14.96875 C 9.4375 -14.363281 9.726562 -13.867188 10.25 -13.484375 C 10.78125 -13.109375 11.398438 -12.863281 12.109375 -12.75 C 12.816406 -12.644531 13.492188 -12.691406 14.140625 -12.890625 C 14.796875 -13.097656 15.3125 -13.46875 15.6875 -14 C 16.070312 -14.539062 16.179688 -15.265625 16.015625 -16.171875 C 15.554688 -18.703125 13.34375 -20.066406 9.375 -20.265625 Z M 9.375 -20.265625 "/></g></g></g></svg>